# xmcd
#
# Track frame offsets:
#	182
#	16302
#	30247
#	43292
#	58635
#	73055
#	91280
#	102955
#	119870
#	132485
#
# Disc length: 1987 seconds
#
# Revision: 1
# Processed by: cddbd v1.5.1PL0 Copyright (c) Steve Scherf et al.
# Submitted via: audiograbber 1.83.01
#
DISCID=8d07c10a
DTITLE=Sonora Dinamita - Nuevamente En La Pantalla
DYEAR=1992
DGENRE=Cumbia
TTITLE0=Suspiros
TTITLE1=Misión Imposible
TTITLE2=La Mosca Y El Mosquito
TTITLE3=Mi Ciudad Es Mi Ciudad
TTITLE4=Si Vos Te Vas
TTITLE5=Vuela Vuela
TTITLE6=La Loca Genoveva
TTITLE7=Las Cosquillitas
TTITLE8=Tana Y Teresa
TTITLE9=Amor En California
EXTD=
EXTT0=
EXTT1=
EXTT2=
EXTT3=
EXTT4=
EXTT5=
EXTT6=
EXTT7=
EXTT8=
EXTT9=
PLAYORDER=
